<svg width="16" height="16" viewBox="0 0 16 16" fill="none" xmlns="http://www.w3.org/2000/svg">
<g clip-path="url(#clip0_21_317)">
<path d="M8 10C9.10457 10 10 9.10457 10 8C10 6.89543 9.10457 6 8 6C6.89543 6 6 6.89543 6 8C6 9.10457 6.89543 10 8 10Z" stroke="#405169" stroke-width="1.33333" stroke-linecap="round" stroke-linejoin="round"/>
<path d="M12.9332 10C12.8444 10.2011 12.818 10.4241 12.8572 10.6404C12.8964 10.8567 12.9995 11.0562 13.1532 11.2133L13.1932 11.2533C13.3171 11.3772 13.4155 11.5242 13.4826 11.6861C13.5497 11.8479 13.5842 12.0214 13.5842 12.1967C13.5842 12.3719 13.5497 12.5454 13.4826 12.7073C13.4155 12.8691 13.3171 13.0162 13.1932 13.14C13.0693 13.264 12.9223 13.3623 12.7604 13.4294C12.5986 13.4965 12.4251 13.531 12.2498 13.531C12.0746 13.531 11.9011 13.4965 11.7393 13.4294C11.5774 13.3623 11.4303 13.264 11.3065 13.14L11.2665 13.1C11.1094 12.9463 10.9098 12.8432 10.6936 12.804C10.4773 12.7648 10.2542 12.7913 10.0532 12.88C9.85599 12.9645 9.68783 13.1048 9.56938 13.2837C9.45093 13.4625 9.38736 13.6721 9.3865 13.8867V14C9.3865 14.3536 9.24603 14.6928 8.99598 14.9428C8.74593 15.1929 8.40679 15.3333 8.05317 15.3333C7.69955 15.3333 7.36041 15.1929 7.11036 14.9428C6.86031 14.6928 6.71984 14.3536 6.71984 14V13.94C6.71468 13.7193 6.64325 13.5053 6.51484 13.3258C6.38644 13.1463 6.20699 13.0095 5.99984 12.9333C5.79876 12.8446 5.57571 12.8181 5.35945 12.8573C5.14318 12.8965 4.94362 12.9996 4.7865 13.1533L4.7465 13.1933C4.62267 13.3173 4.47562 13.4156 4.31376 13.4827C4.15189 13.5498 3.97839 13.5844 3.80317 13.5844C3.62795 13.5844 3.45445 13.5498 3.29258 13.4827C3.13072 13.4156 2.98367 13.3173 2.85984 13.1933C2.73587 13.0695 2.63752 12.9224 2.57042 12.7606C2.50333 12.5987 2.46879 12.4252 2.46879 12.25C2.46879 12.0748 2.50333 11.9013 2.57042 11.7394C2.63752 11.5775 2.73587 11.4305 2.85984 11.3067L2.89984 11.2667C3.05353 11.1095 3.15663 10.91 3.19584 10.6937C3.23505 10.4775 3.20858 10.2544 3.11984 10.0533C3.03533 9.85615 2.89501 9.68799 2.71615 9.56954C2.53729 9.45109 2.3277 9.38752 2.11317 9.38666H1.99984C1.64622 9.38666 1.30708 9.24619 1.05703 8.99614C0.80698 8.74609 0.666504 8.40695 0.666504 8.05333C0.666504 7.69971 0.80698 7.36057 1.05703 7.11052C1.30708 6.86047 1.64622 6.72 1.99984 6.72H2.05984C2.2805 6.71484 2.49451 6.64341 2.67404 6.515C2.85357 6.3866 2.99031 6.20715 3.0665 6C3.15525 5.79892 3.18172 5.57587 3.14251 5.35961C3.10329 5.14334 3.0002 4.94378 2.8465 4.78666L2.8065 4.74666C2.68254 4.62283 2.58419 4.47578 2.51709 4.31392C2.44999 4.15205 2.41546 3.97855 2.41546 3.80333C2.41546 3.62811 2.44999 3.45461 2.51709 3.29274C2.58419 3.13088 2.68254 2.98383 2.8065 2.86C2.93033 2.73603 3.07739 2.63768 3.23925 2.57058C3.40111 2.50349 3.57462 2.46895 3.74984 2.46895C3.92506 2.46895 4.09856 2.50349 4.26042 2.57058C4.42229 2.63768 4.56934 2.73603 4.69317 2.86L4.73317 2.9C4.89029 3.05369 5.08985 3.15679 5.30611 3.196C5.52237 3.23521 5.74543 3.20874 5.9465 3.12H5.99984C6.19702 3.03549 6.36518 2.89517 6.48363 2.71631C6.60208 2.53745 6.66565 2.32786 6.6665 2.11333V2C6.6665 1.64638 6.80698 1.30724 7.05703 1.05719C7.30708 0.80714 7.64622 0.666664 7.99984 0.666664C8.35346 0.666664 8.6926 0.80714 8.94265 1.05719C9.19269 1.30724 9.33317 1.64638 9.33317 2V2.06C9.33403 2.27452 9.39759 2.48411 9.51604 2.66297C9.63449 2.84183 9.80266 2.98216 9.99984 3.06666C10.2009 3.15541 10.424 3.18188 10.6402 3.14267C10.8565 3.10345 11.0561 3.00036 11.2132 2.84666L11.2532 2.80666C11.377 2.6827 11.5241 2.58435 11.6859 2.51725C11.8478 2.45015 12.0213 2.41562 12.1965 2.41562C12.3717 2.41562 12.5452 2.45015 12.7071 2.51725C12.869 2.58435 13.016 2.6827 13.1398 2.80666C13.2638 2.93049 13.3622 3.07755 13.4293 3.23941C13.4963 3.40127 13.5309 3.57478 13.5309 3.75C13.5309 3.92522 13.4963 4.09872 13.4293 4.26058C13.3622 4.42245 13.2638 4.5695 13.1398 4.69333L13.0998 4.73333C12.9461 4.89045 12.843 5.09001 12.8038 5.30627C12.7646 5.52254 12.7911 5.74559 12.8798 5.94666V6C12.9643 6.19718 13.1047 6.36534 13.2835 6.48379C13.4624 6.60224 13.672 6.66581 13.8865 6.66666H13.9998C14.3535 6.66666 14.6926 6.80714 14.9426 7.05719C15.1927 7.30724 15.3332 7.64638 15.3332 8C15.3332 8.35362 15.1927 8.69276 14.9426 8.94281C14.6926 9.19285 14.3535 9.33333 13.9998 9.33333H13.9398C13.7253 9.33419 13.5157 9.39775 13.3369 9.5162C13.158 9.63465 13.0177 9.80282 12.9332 10V10Z" stroke="#405169" stroke-width="1.33333" stroke-linecap="round" stroke-linejoin="round"/>
</g>
<defs>
<clipPath id="clip0_21_317">
<rect width="16" height="16" fill="white"/>
</clipPath>
</defs>
</svg>
