<svg width="16" height="16" viewBox="0 0 16 16" fill="none" xmlns="http://www.w3.org/2000/svg">
<path d="M12.6667 7.33333H3.33333C2.59695 7.33333 2 7.93029 2 8.66667V13.3333C2 14.0697 2.59695 14.6667 3.33333 14.6667H12.6667C13.403 14.6667 14 14.0697 14 13.3333V8.66667C14 7.93029 13.403 7.33333 12.6667 7.33333Z" stroke="#405169" stroke-width="1.33333" stroke-linecap="round" stroke-linejoin="round"/>
<path d="M4.6665 7.33333V4.66667C4.6665 3.78261 5.01769 2.93477 5.64281 2.30964C6.26794 1.68452 7.11578 1.33333 7.99984 1.33333C8.88389 1.33333 9.73174 1.68452 10.3569 2.30964C10.982 2.93477 11.3332 3.78261 11.3332 4.66667V7.33333" stroke="#405169" stroke-width="1.33333" stroke-linecap="round" stroke-linejoin="round"/>
</svg>
