<svg width="220" height="37" viewBox="0 0 220 37" fill="none" xmlns="http://www.w3.org/2000/svg">
<g id="Logo">
<g id="Group">
<path id="Vector" d="M45.75 9.48767H49.5747V28.0996H45.75V9.48767Z" fill="#001638"/>
<path id="Vector_2" d="M54.0332 13.8017H57.7726V28.0997H54.0332V13.8017ZM64.4176 13.4866C65.2997 13.4866 66.115 13.6015 66.8636 13.8313C67.6123 14.0611 68.2645 14.4169 68.8204 14.8949C69.3763 15.373 69.8063 15.9845 70.1139 16.722C70.4215 17.4595 70.5734 18.3379 70.5734 19.3533V28.0997H66.834V20.0167C66.834 18.8086 66.5412 17.9228 65.9556 17.3558C65.3701 16.7887 64.4176 16.5071 63.0946 16.5071C62.0976 16.5071 61.197 16.6998 60.3891 17.0815C59.5849 17.467 58.9326 17.9487 58.4323 18.5343C57.932 19.1199 57.6466 19.7277 57.5688 20.3614L57.5391 18.8938C57.6355 18.223 57.8542 17.5707 58.2025 16.937C58.5472 16.3033 59.0142 15.7251 59.596 15.1951C60.1816 14.6689 60.8746 14.2501 61.6825 13.9425C62.4905 13.6386 63.4022 13.4866 64.4176 13.4866Z" fill="#001638"/>
<path id="Vector_3" d="M73.9678 13.8017H77.7072V28.0997H73.9678V13.8017ZM84.3559 13.4866C85.2379 13.4866 86.0533 13.6015 86.8019 13.8313C87.5505 14.0611 88.2028 14.4169 88.7587 14.8949C89.3146 15.373 89.7445 15.9845 90.0521 16.722C90.3597 17.4595 90.5117 18.3379 90.5117 19.3533V28.0997H86.7723V20.0167C86.7723 18.8086 86.4795 17.9228 85.8939 17.3558C85.3084 16.7887 84.3559 16.5071 83.0328 16.5071C82.0359 16.5071 81.1353 16.6998 80.3274 17.0815C79.5232 17.467 78.8709 17.9487 78.3706 18.5343C77.8703 19.1199 77.5849 19.7277 77.5071 20.3614L77.4774 18.8938C77.5738 18.223 77.7924 17.5707 78.1408 16.937C78.4855 16.3033 78.9524 15.7251 79.5343 15.1951C80.1199 14.6689 80.8129 14.2501 81.6208 13.9425C82.4287 13.6386 83.3367 13.4866 84.3559 13.4866Z" fill="#001638"/>
<path id="Vector_4" d="M102.334 28.4443C100.529 28.4443 98.9433 28.1553 97.572 27.5808C96.2008 27.0064 95.1297 26.1651 94.3626 25.0644C93.5954 23.96 93.21 22.6036 93.21 20.9951C93.21 19.3867 93.5917 18.0192 94.3626 16.8962C95.1297 15.7733 96.1971 14.9246 97.572 14.3501C98.9433 13.7757 100.529 13.4866 102.334 13.4866C104.135 13.4866 105.714 13.7757 107.067 14.3501C108.42 14.9246 109.48 15.7733 110.247 16.8962C111.014 18.0192 111.399 19.383 111.399 20.9951C111.399 22.6073 111.014 23.9637 110.247 25.0644C109.48 26.1688 108.42 27.0064 107.067 27.5808C105.714 28.159 104.135 28.4443 102.334 28.4443ZM102.334 25.5684C103.331 25.5684 104.228 25.3905 105.025 25.0348C105.822 24.679 106.448 24.1638 106.908 23.4819C107.367 22.8 107.597 21.9698 107.597 20.9951C107.597 20.0167 107.367 19.1792 106.908 18.4787C106.448 17.7783 105.825 17.2483 105.036 16.8814C104.25 16.5182 103.35 16.3329 102.331 16.3329C101.334 16.3329 100.433 16.5145 99.6252 16.8814C98.821 17.2446 98.1835 17.7746 97.7128 18.4639C97.2422 19.1532 97.0087 19.9982 97.0087 20.9951C97.0087 21.9735 97.2385 22.8037 97.698 23.4819C98.1576 24.1638 98.7913 24.679 99.5955 25.0348C100.407 25.3905 101.319 25.5684 102.334 25.5684Z" fill="#001638"/>
<path id="Vector_5" d="M121.465 25.6536H120.113L125.349 13.8016H129.433L122.559 28.0996H119.019L112.289 13.8016H116.403L121.465 25.6536Z" fill="#001638"/>
<path id="Vector_6" d="M137.92 28.4185C136.501 28.4185 135.211 28.1072 134.051 27.4845C132.891 26.8619 131.968 25.9873 131.29 24.8681C130.608 23.7451 130.267 22.448 130.267 20.9693C130.267 19.4535 130.612 18.1415 131.301 17.0297C131.99 15.9179 132.928 15.0507 134.107 14.428C135.285 13.8054 136.623 13.4941 138.12 13.4941C139.769 13.4941 141.096 13.824 142.104 14.4873C143.112 15.1507 143.846 16.0476 144.306 17.1779C144.765 18.3083 144.995 19.5758 144.995 20.9767C144.995 21.8217 144.862 22.6778 144.591 23.5524C144.321 24.427 143.909 25.2312 143.353 25.9688C142.797 26.7063 142.067 27.3029 141.167 27.7514C140.27 28.1924 139.188 28.4185 137.92 28.4185ZM139.128 25.5389C140.259 25.5389 141.237 25.3461 142.064 24.9644C142.886 24.5827 143.52 24.0453 143.961 23.3523C144.402 22.6629 144.624 21.8661 144.624 20.9656C144.624 19.9872 144.398 19.157 143.95 18.4788C143.498 17.7969 142.868 17.2817 142.052 16.9259C141.237 16.5702 140.262 16.3923 139.132 16.3923C137.538 16.3923 136.304 16.811 135.422 17.6449C134.54 18.4788 134.099 19.5869 134.099 20.9693C134.099 21.8884 134.31 22.6926 134.733 23.3708C135.155 24.0527 135.745 24.5827 136.501 24.9681C137.253 25.3498 138.131 25.5389 139.128 25.5389ZM144.624 13.8017H148.364V28.0997H144.884C144.787 27.3511 144.721 26.6914 144.684 26.1133C144.647 25.5389 144.624 24.9718 144.624 24.4159V13.8017Z" fill="#001638"/>
<path id="Vector_7" d="M150.75 13.8016H161.854V16.7072H150.75V13.8016ZM154.434 9.89169H158.174V28.1033H154.434V9.89169Z" fill="#001638"/>
<path id="Vector_8" d="M177.075 23.356H180.699C180.547 24.3344 180.14 25.2053 179.476 25.9724C178.813 26.7396 177.916 27.3437 176.786 27.7847C175.655 28.2257 174.273 28.4481 172.642 28.4481C170.819 28.4481 169.21 28.1553 167.809 27.5698C166.409 26.9842 165.315 26.1355 164.53 25.0237C163.744 23.9119 163.351 22.5703 163.351 20.9952C163.351 19.4238 163.733 18.0748 164.504 16.9519C165.271 15.8289 166.338 14.9728 167.713 14.3761C169.084 13.7832 170.689 13.483 172.531 13.483C174.41 13.483 175.974 13.7795 177.219 14.3761C178.464 14.9691 179.391 15.866 179.995 17.0667C180.599 18.2638 180.855 19.7944 180.759 21.6549H167.124C167.22 22.385 167.494 23.0446 167.943 23.6413C168.395 24.2343 169.007 24.705 169.785 25.0496C170.563 25.3943 171.486 25.5685 172.561 25.5685C173.75 25.5685 174.744 25.3609 175.537 24.9496C176.33 24.5382 176.845 24.0045 177.075 23.356ZM172.357 16.3329C170.974 16.3329 169.855 16.6368 168.992 17.2409C168.128 17.845 167.572 18.5899 167.324 19.472H177.049C176.952 18.5121 176.497 17.7524 175.681 17.1853C174.862 16.6183 173.754 16.3329 172.357 16.3329Z" fill="#001638"/>
<path id="Vector_9" d="M190.68 25.9131C189.127 25.9131 187.76 25.6796 186.581 25.2089C185.403 24.7383 184.487 24.0452 183.835 23.1224C183.183 22.2033 182.856 21.0915 182.856 19.787C182.856 18.501 183.171 17.3891 183.805 16.4515C184.439 15.5101 185.343 14.7838 186.525 14.2649C187.704 13.7461 189.09 13.4866 190.684 13.4866C191.125 13.4866 191.551 13.5163 191.962 13.5719C192.374 13.6312 192.781 13.7053 193.185 13.8017L200.405 13.8313V16.6516C199.426 16.6702 198.433 16.5516 197.425 16.2921C196.417 16.0327 195.531 15.751 194.764 15.4434L194.679 15.2433C195.331 15.5509 195.943 15.9289 196.521 16.3811C197.095 16.8332 197.562 17.3484 197.918 17.9339C198.274 18.5195 198.452 19.194 198.452 19.9611C198.452 21.2064 198.137 22.2774 197.503 23.1706C196.869 24.0638 195.972 24.742 194.812 25.2127C193.649 25.6796 192.274 25.9131 190.68 25.9131ZM195.487 33.9998V33.3104C195.487 32.4284 195.205 31.8132 194.638 31.4685C194.071 31.1238 193.3 30.9497 192.322 30.9497H187.863C187 30.9497 186.277 30.8829 185.692 30.7495C185.106 30.6161 184.643 30.4234 184.298 30.1751C183.953 29.9268 183.705 29.634 183.549 29.2967C183.398 28.9595 183.32 28.6 183.32 28.2183C183.32 27.4511 183.568 26.873 184.068 26.4764C184.569 26.0836 185.239 25.8204 186.081 25.687C186.926 25.5536 187.856 25.524 188.871 25.6018L190.684 25.9168C189.476 25.9539 188.579 26.0576 187.993 26.2207C187.408 26.3838 187.115 26.7062 187.115 27.1843C187.115 27.4734 187.23 27.6994 187.459 27.8588C187.689 28.0219 188.015 28.1034 188.438 28.1034H193.126C194.412 28.1034 195.509 28.2405 196.421 28.5222C197.332 28.8001 198.025 29.2708 198.507 29.9305C198.985 30.5939 199.226 31.4982 199.226 32.6507V34.0035H195.487V33.9998ZM190.68 23.2114C191.503 23.2114 192.229 23.078 192.852 22.8074C193.474 22.5406 193.96 22.1514 194.305 21.6437C194.649 21.136 194.823 20.5282 194.823 19.8166C194.823 19.0865 194.649 18.4639 194.305 17.945C193.96 17.4262 193.482 17.0296 192.867 16.7517C192.251 16.4737 191.525 16.3329 190.68 16.3329C189.854 16.3329 189.127 16.4737 188.493 16.7517C187.86 17.0296 187.37 17.4262 187.026 17.945C186.681 18.4639 186.507 19.0865 186.507 19.8166C186.507 20.5282 186.681 21.136 187.026 21.6437C187.37 22.1514 187.856 22.5406 188.479 22.8074C189.105 23.078 189.839 23.2114 190.68 23.2114Z" fill="#001638"/>
<path id="Vector_10" d="M201.553 13.8016H205.522L211.708 27.5252L208.487 28.0996L201.553 13.8016ZM219.046 13.8016L209.151 33.8515H205.267L209.495 25.9686L215.047 13.8016H219.046Z" fill="#001638"/>
</g>
<path id="Vector_11" d="M31.552 16.7552C31.7781 16.2104 31.9671 15.6396 32.1153 15.0504C33.7868 8.40908 29.7583 1.67144 23.1207 0L21.0972 8.04218C15.0785 6.29662 8.32603 8.07183 3.97881 13.138C-1.95462 20.0499 -1.16152 30.4639 5.75402 36.3974L13.0105 27.9401C12.3064 27.2915 11.68 26.5392 11.1612 25.6757C8.28897 20.8689 9.85664 14.6427 14.6634 11.7705C19.4702 8.89828 25.6964 10.466 28.5686 15.2727C30.9627 19.279 30.266 24.26 27.19 27.4731C31.5001 25.9203 34.78 22.0289 35.3174 17.1665L31.552 16.7552Z" fill="#001638"/>
</g>
</svg>
